<svg id="Capa_1" enable-background="new 0 0 508.365 508.365" height="512" viewBox="0 0 508.365 508.365" width="512" xmlns="http://www.w3.org/2000/svg"><g><g><path d="m496.975 428.128-218.068-376.148-32.33 7.827-218.684 378.772 15 25.98.838-3.261 36.951 9.496h391.712c21.895 0 35.563-23.723 24.581-42.666z" fill="#aa9ea9"/><path d="m79.964 428.128 208.506-359.654-9.563-16.495-.142-.245c-10.948-18.884-38.217-18.884-49.165 0l-218.21 376.394c-10.982 18.943 2.686 42.666 24.582 42.666h68.574c-21.896 0-35.564-23.723-24.582-42.666z" fill="#9b8e99"/><path d="m465.924 434.382-208.047-358.861c-1.255-2.134-4.345-2.122-5.583.022l-208.461 361.065c-1.039 1.8.178 4.165 2.257 4.186h.047 416.092c3.291 0 5.345-3.565 3.695-6.412z" fill="#fee97d"/><path d="m257.877 75.521c-1.255-2.134-4.345-2.122-5.583.022l-208.461 361.065c-1.039 1.8.178 4.165 2.257 4.187h.047 30c.236-4.253 1.453-8.571 3.827-12.666l191.167-329.747z" fill="#fedf30"/></g><g><path d="m503.463 424.367-138.16-238.315c-2.076-3.583-6.667-4.803-10.25-2.727-3.583 2.077-4.805 6.666-2.727 10.25l138.16 238.315c3.796 6.548 3.807 14.372.028 20.931s-10.553 10.474-18.122 10.474h-436.419c-7.569 0-14.344-3.915-18.122-10.474s-3.768-14.383.028-20.931l218.21-376.394c3.784-6.528 10.549-10.426 18.095-10.426 7.545 0 14.31 3.897 18.094 10.426l64.019 110.427c2.077 3.584 6.668 4.805 10.25 2.727 3.583-2.077 4.805-6.666 2.727-10.25l-64.02-110.427c-6.498-11.21-18.114-17.902-31.07-17.902-12.957 0-24.573 6.692-31.071 17.902l-218.211 376.394c-6.52 11.244-6.537 24.68-.049 35.942s18.122 17.985 31.119 17.985h436.42c12.997 0 24.631-6.724 31.119-17.985 6.489-11.263 6.471-24.698-.048-35.942z"/><path d="m201.928 174.237c2.078-3.584.856-8.173-2.727-10.25-3.582-2.076-8.172-.857-10.25 2.727l-156.715 270.319c-1.346 2.32-1.35 5.182-.01 7.506 1.339 2.324 3.816 3.756 6.498 3.756h430.917c2.682 0 5.16-1.432 6.499-3.756s1.335-5.186-.011-7.506l-30.726-52.999c-2.076-3.583-6.667-4.804-10.25-2.727s-4.805 6.666-2.727 10.25l24.196 41.737h-404.88z"/><path d="m260.671 65.386c-1.342-2.313-3.813-3.738-6.488-3.738s-5.147 1.425-6.488 3.738l-42.712 73.675c-2.078 3.584-.856 8.173 2.727 10.25 3.584 2.077 8.173.858 10.25-2.727l36.224-62.482 162.215 279.805c1.391 2.399 3.908 3.739 6.495 3.739 1.276 0 2.571-.326 3.755-1.013 3.583-2.077 4.805-6.666 2.727-10.25z"/><path d="m234.772 219.399c3.615-2.022 4.905-6.592 2.883-10.207-2.021-3.614-6.593-4.905-10.207-2.883-17.332 9.697-28.1 28.042-28.1 47.874 0 8.041 1.754 15.676 4.877 22.563-1.687 2.533-3.179 5.204-4.471 7.987-11.632 1.626-22.389 6.922-30.883 15.337-14.089 13.957-19.544 34.517-14.235 53.655 1.108 3.99 5.237 6.329 9.232 5.223 3.991-1.107 6.329-5.241 5.223-9.232-3.859-13.91.103-28.851 10.337-38.989 4.417-4.375 9.677-7.582 15.407-9.491-.411 2.829-.633 5.717-.633 8.658 0 26.67 17.501 49.32 41.619 57.096-.109.111-.212.226-.323.336-10.235 10.14-25.211 13.96-39.085 9.971-3.979-1.145-8.136 1.153-9.28 5.136-1.145 3.98 1.154 8.136 5.136 9.28 4.999 1.438 10.099 2.138 15.162 2.138 14.271-.001 28.225-5.565 38.624-15.868 2.543-2.52 4.805-5.248 6.779-8.141.45.01.897.034 1.35.034.857 0 1.708-.029 2.557-.065 1.979 2.905 4.248 5.643 6.801 8.171 10.399 10.304 24.353 15.868 38.624 15.868 5.063 0 10.165-.7 15.162-2.138 3.981-1.145 6.28-5.3 5.136-9.28-1.145-3.982-5.305-6.279-9.28-5.136-13.875 3.987-28.85.169-39.085-9.971-.214-.212-.416-.434-.625-.65 23.637-8.052 40.693-30.455 40.693-56.781 0-3.082-.235-6.109-.685-9.067 6.229 1.841 11.945 5.201 16.688 9.9 10.234 10.139 14.196 25.079 10.337 38.989-1.106 3.991 1.231 8.125 5.223 9.232 3.995 1.106 8.124-1.232 9.232-5.223 5.309-19.139-.146-39.698-14.235-53.655-8.81-8.728-20.054-14.093-32.184-15.496-1.275-2.727-2.745-5.343-4.399-7.829 3.123-6.887 4.877-14.522 4.877-22.563 0-19.832-10.768-38.177-28.1-47.874-3.617-2.022-8.186-.731-10.207 2.883-2.022 3.615-.732 8.185 2.883 10.207 12.598 7.049 20.424 20.377 20.424 34.784 0 3.398-.43 6.698-1.234 9.85-10.44-8.802-23.908-14.12-38.6-14.12s-28.16 5.318-38.6 14.12c-.805-3.151-1.234-6.451-1.234-9.85-.005-14.406 7.821-27.734 20.419-34.783zm-25.571 90.495c0-3.644.447-7.184 1.268-10.58 9.573.711 18.469 4.791 25.291 11.677 7.489 7.559 11.586 17.581 11.536 28.222-.024 5.082-1.002 10.011-2.832 14.593-20.144-4.455-35.263-22.446-35.263-43.912zm55.826 43.652c-1.763-4.509-2.706-9.347-2.73-14.333-.05-10.641 4.047-20.663 11.536-28.222 6.535-6.597 14.972-10.627 24.085-11.58.807 3.366 1.246 6.873 1.246 10.482 0 21.066-14.557 38.787-34.137 43.653zm-10.844-88.633c12.413 0 23.667 5.055 31.814 13.213-7.277 9.645-18.828 15.893-31.814 15.893s-24.537-6.248-31.814-15.893c8.147-8.159 19.401-13.213 31.814-13.213z"/><path d="m261.683 133.038v-6.447c0-4.143-3.357-7.5-7.5-7.5s-7.5 3.357-7.5 7.5v6.447c0 4.143 3.357 7.5 7.5 7.5s7.5-3.358 7.5-7.5z"/><path d="m87.34 405.483c-4.143 0-7.5 3.357-7.5 7.5s3.357 7.5 7.5 7.5h8.314c4.143 0 7.5-3.357 7.5-7.5s-3.357-7.5-7.5-7.5z"/><path d="m422.254 420.483c4.143 0 7.5-3.357 7.5-7.5s-3.357-7.5-7.5-7.5h-8.314c-4.143 0-7.5 3.357-7.5 7.5s3.357 7.5 7.5 7.5z"/></g></g></svg>